<?xml version="1.0" encoding="iso-8859-1"?>
<!-- Generator: Adobe Illustrator 19.0.0, SVG Export Plug-In . SVG Version: 6.00 Build 0)  -->
<svg version="1.1" id="Layer_1" xmlns="http://www.w3.org/2000/svg" xmlns:xlink="http://www.w3.org/1999/xlink" x="0px" y="0px"
	 viewBox="0 0 512 512" style="enable-background:new 0 0 512 512;" xml:space="preserve">
<path style="fill:#FFCC3D;" d="M258.577,0.023C257.722,0.011,256.855,0,256,0c-0.855,0-1.722,0.011-2.577,0.023
	C113.225,1.395,0,115.476,0,256s113.225,254.605,253.423,255.977c0.855,0.011,1.722,0.022,2.577,0.022
	c0.855,0,1.722-0.011,2.577-0.022C367.346,510.211,477.612,396.277,477.612,256S367.346,1.789,258.577,0.023z"/>
<g>
	<path style="fill:#FFBB02;" d="M348.363,188.858c-17.757,0-32.202,14.445-32.202,32.202h64.404
		C380.565,203.305,366.119,188.858,348.363,188.858z"/>
	<path style="fill:#FFBB02;" d="M163.637,188.858c-17.757,0-32.202,14.445-32.202,32.202h64.404
		C195.839,203.305,181.394,188.858,163.637,188.858z"/>
	<path style="fill:#FFBB02;" d="M258.577,0.023C398.775,1.395,512,115.476,512,256S398.775,510.605,258.577,511.978
		C367.346,510.211,455.106,396.277,455.106,256S367.346,1.789,258.577,0.023z"/>
</g>
<circle style="fill:#FF7A2F;" cx="90.585" cy="275.861" r="19.692"/>
<g>
	<path style="fill:#804E30;" d="M256.001,388.291c-44.335,0-85.684-22.007-110.607-58.868c-2.611-3.862-1.597-9.108,2.264-11.719
		c3.862-2.611,9.109-1.596,11.719,2.264c21.78,32.212,57.902,51.444,96.625,51.444c38.722,0,74.843-19.231,96.623-51.442
		c2.609-3.861,7.856-4.876,11.719-2.264c3.862,2.611,4.875,7.857,2.264,11.719C341.684,366.285,300.335,388.291,256.001,388.291z"/>
	<path style="fill:#804E30;" d="M382.121,229.5c-4.662,0-8.44-3.779-8.44-8.44c0-13.961-11.359-25.319-25.319-25.319
		s-25.319,11.357-25.319,25.319c0,4.661-3.778,8.44-8.44,8.44s-8.44-3.779-8.44-8.44c0-23.268,18.929-42.198,42.198-42.198
		s42.198,18.929,42.198,42.198C390.56,225.721,386.783,229.5,382.121,229.5z"/>
	<path style="fill:#804E30;" d="M197.396,229.5c-4.661,0-8.44-3.779-8.44-8.44c0-13.961-11.357-25.319-25.319-25.319
		c-13.961,0-25.319,11.357-25.319,25.319c0,4.661-3.779,8.44-8.44,8.44s-8.44-3.779-8.44-8.44c0-23.268,18.929-42.198,42.198-42.198
		s42.198,18.929,42.198,42.198C205.835,225.721,202.057,229.5,197.396,229.5z"/>
</g>
<path style="fill:#FFBB02;" d="M272.879,422.049h-33.758c-4.661,0-8.44-3.779-8.44-8.44s3.779-8.44,8.44-8.44h33.758
	c4.662,0,8.44,3.779,8.44,8.44S277.541,422.049,272.879,422.049z"/>
<circle style="fill:#FF7A2F;" cx="421.415" cy="275.861" r="19.692"/>
<g>
</g>
<g>
</g>
<g>
</g>
<g>
</g>
<g>
</g>
<g>
</g>
<g>
</g>
<g>
</g>
<g>
</g>
<g>
</g>
<g>
</g>
<g>
</g>
<g>
</g>
<g>
</g>
<g>
</g>
</svg>
