<svg id="Icons" height="512" viewBox="0 0 60 60" width="512" xmlns="http://www.w3.org/2000/svg"><path d="m31.93 52.394 11.185 5.174a4.575 4.575 0 0 0 6.479-4.65l-1.433-12.534a4.545 4.545 0 0 1 1.156-3.576l8.494-9.339a4.552 4.552 0 0 0 -2.475-7.526l-12.194-2.487a4.576 4.576 0 0 1 -3.084-2.256l-6.058-10.854a4.588 4.588 0 0 0 -8.006 0l-6.052 10.854a4.576 4.576 0 0 1 -3.084 2.253l-12.194 2.49a4.552 4.552 0 0 0 -2.475 7.526l8.494 9.339a4.545 4.545 0 0 1 1.156 3.576l-1.433 12.534a4.575 4.575 0 0 0 6.479 4.65l11.185-5.174a4.6 4.6 0 0 1 3.86 0z" fill="#ffdf00"/><path d="m57.811 27.469a4.552 4.552 0 0 0 -2.475-7.526l-12.194-2.487a4.576 4.576 0 0 1 -3.084-2.256l-6.058-10.854a4.573 4.573 0 0 0 -5.5-2.089 4.492 4.492 0 0 1 2.5 2.089l6.058 10.854a4.576 4.576 0 0 0 3.084 2.253l12.194 2.487a4.552 4.552 0 0 1 2.475 7.526l-8.494 9.339a4.545 4.545 0 0 0 -1.156 3.576l1.433 12.534a4.542 4.542 0 0 1 -3.043 4.817 4.569 4.569 0 0 0 6.043-4.817l-1.433-12.531a4.545 4.545 0 0 1 1.156-3.576z" fill="#fec108"/><path d="m59 47.24a1.562 1.562 0 0 1 -.46 1.14l-4.48 4.38-4.29 4.19c-3.2 3.12-8.76 2.62-12.43-1.13a10.333 10.333 0 0 1 -2.96-6.16 7.679 7.679 0 0 1 1.75-5.87c.25-.29 1.27-1.36 1.47-1.7.8-1.39 2.91-5.25 2.79-6.93-.13-2.08 3.46-2.27 3.67.85a12.472 12.472 0 0 1 -.53 4.66l6.74-6.58a1.564 1.564 0 0 1 1.11-.43 2.152 2.152 0 0 1 1.51.67 1.864 1.864 0 0 1 .18 2.62l1.46-1.42a1.557 1.557 0 0 1 1.1-.43 2.133 2.133 0 0 1 1.52.67 1.862 1.862 0 0 1 .17 2.62l-1.94 1.9a1.573 1.573 0 0 1 1.11-.44 2.135 2.135 0 0 1 1.51.67 1.875 1.875 0 0 1 .17 2.63l-2.42 2.37a1.873 1.873 0 0 1 2.62.24 2.139 2.139 0 0 1 .63 1.48z" fill="#f5f5f5"/><path d="m25.62 49.66a10.333 10.333 0 0 1 -2.96 6.16c-3.67 3.75-9.23 4.25-12.43 1.13l-4.29-4.19-4.48-4.38a1.862 1.862 0 0 1 .17-2.62 2.192 2.192 0 0 1 1.52-.67 1.541 1.541 0 0 1 1.1.43l-2.42-2.37a1.875 1.875 0 0 1 .17-2.63 2.135 2.135 0 0 1 1.51-.67 1.573 1.573 0 0 1 1.11.44l-1.94-1.9a1.862 1.862 0 0 1 .17-2.62 2.133 2.133 0 0 1 1.52-.67 1.557 1.557 0 0 1 1.1.43l1.46 1.42a1.864 1.864 0 0 1 .18-2.62 2.152 2.152 0 0 1 1.51-.67 1.564 1.564 0 0 1 1.11.43l6.74 6.58a12.472 12.472 0 0 1 -.53-4.66c.21-3.12 3.8-2.93 3.67-.85-.12 1.68 1.99 5.54 2.79 6.93.2.34 1.22 1.41 1.47 1.7a7.679 7.679 0 0 1 1.75 5.87z" fill="#f5f5f5"/><path d="m59.722 22.686a5.51 5.51 0 0 0 -4.183-3.725l-12.2-2.481a3.573 3.573 0 0 1 -2.408-1.767l-6.057-10.85a5.582 5.582 0 0 0 -9.747 0l-6.061 10.851a3.572 3.572 0 0 1 -2.4 1.766l-12.206 2.481a5.554 5.554 0 0 0 -3.009 9.182l4.969 5.457c-.009.009-.02.015-.028.024a3.231 3.231 0 0 0 -.608.882 2.933 2.933 0 0 0 -3.646.556 2.868 2.868 0 0 0 -.159 4.038l.122.119a3.316 3.316 0 0 0 -.816.6 2.869 2.869 0 0 0 -.159 4.037l.607.594a3.306 3.306 0 0 0 -.814.6 2.868 2.868 0 0 0 -.159 4.05l8.77 8.57a8.4 8.4 0 0 0 5.941 2.327 11.179 11.179 0 0 0 7.9-3.473 12.061 12.061 0 0 0 1.165-1.393l3.951-1.831a3.612 3.612 0 0 1 3.023 0l3.954 1.831a12.079 12.079 0 0 0 1.166 1.394 11.178 11.178 0 0 0 7.9 3.472 8.392 8.392 0 0 0 5.941-2.328l8.769-8.569a2.869 2.869 0 0 0 -.159-4.038 3.287 3.287 0 0 0 -.814-.6l.607-.593a2.87 2.87 0 0 0 -.16-4.039 3.327 3.327 0 0 0 -.814-.6l.121-.119a2.869 2.869 0 0 0 -.16-4.039 2.934 2.934 0 0 0 -3.644-.555 3.241 3.241 0 0 0 -.608-.881c-.009-.009-.019-.016-.029-.025l4.97-5.461a5.494 5.494 0 0 0 1.172-5.464zm-37.782 32.438c-3.272 3.351-8.212 3.846-11.011 1.112l-8.771-8.57a.906.906 0 0 1 .193-1.21 1.179 1.179 0 0 1 .72-.364.616.616 0 0 1 .484.144l4.477 4.374a1 1 0 1 0 1.4-1.429l-4.477-4.373-2.431-2.375a.905.905 0 0 1 .192-1.209 1.2 1.2 0 0 1 .722-.366.615.615 0 0 1 .483.142l6.905 6.746a1 1 0 0 0 1.4-1.43l-8.849-8.643a.905.905 0 0 1 .191-1.209c.372-.381.937-.485 1.2-.222l1.456 1.422 7.392 7.222a1 1 0 0 0 1.4-1.43l-7.389-7.222a.908.908 0 0 1 .2-1.209 1.187 1.187 0 0 1 .721-.364.612.612 0 0 1 .483.144l7.393 7.223a1 1 0 1 0 1.4-1.429l-.465-.455a11.545 11.545 0 0 1 -.414-4.068c.071-1.05.665-1.5 1.193-1.448.23.015.5.108.478.461-.127 1.757 1.518 5.049 2.929 7.516a12.029 12.029 0 0 0 1.255 1.495c.137.149.253.273.315.345a6.682 6.682 0 0 1 1.5 5.118 9.326 9.326 0 0 1 -2.675 5.561zm34.491-18.661a.907.907 0 0 1 .192 1.211l-8.851 8.646a1 1 0 0 0 1.4 1.43l6.907-6.75a.612.612 0 0 1 .483-.144 1.194 1.194 0 0 1 .721.365.907.907 0 0 1 .193 1.211l-2.421 2.368-.008.007v.005l-4.475 4.372a1 1 0 0 0 1.4 1.429l4.479-4.375a.613.613 0 0 1 .483-.144 1.179 1.179 0 0 1 .72.364.907.907 0 0 1 .193 1.211l-8.771 8.568c-2.8 2.738-7.739 2.24-11.01-1.11a9.327 9.327 0 0 1 -2.683-5.566 6.682 6.682 0 0 1 1.5-5.116c.062-.071.178-.2.315-.344a11.885 11.885 0 0 0 1.275-1.51c1.4-2.451 3.046-5.743 2.92-7.492-.023-.361.247-.454.477-.469.54-.056 1.123.4 1.193 1.447a11.548 11.548 0 0 1 -.414 4.069l-.465.455a1 1 0 0 0 1.4 1.429l7.393-7.222a.61.61 0 0 1 .483-.145 1.188 1.188 0 0 1 .722.365.907.907 0 0 1 .193 1.209l-7.394 7.224a1 1 0 0 0 1.4 1.43l8.851-8.646c.26-.266.827-.164 1.199.218zm.639-9.663-5.355 5.886c-.026 0-.051-.012-.077-.014a2.6 2.6 0 0 0 -2.063.706l-4.51 4.407a14.919 14.919 0 0 0 -.006-1.841 3.213 3.213 0 0 0 -3.321-3.309 2.422 2.422 0 0 0 -2.342 2.6c.067.923-.978 3.421-2.648 6.345-.121.189-.753.875-1.022 1.168-.155.167-.283.306-.352.386a8.652 8.652 0 0 0 -1.986 6.623 10.483 10.483 0 0 0 .556 2.467l-1.6-.74a5.632 5.632 0 0 0 -4.7 0l-1.593.738a10.457 10.457 0 0 0 .555-2.464 8.652 8.652 0 0 0 -1.986-6.625c-.069-.081-.2-.22-.352-.387-.269-.293-.9-.979-1.009-1.147-1.683-2.945-2.728-5.443-2.661-6.373a2.42 2.42 0 0 0 -2.342-2.592 3.213 3.213 0 0 0 -3.321 3.31 14.9 14.9 0 0 0 -.006 1.84l-4.51-4.408a2.608 2.608 0 0 0 -2.063-.705c-.026 0-.051.011-.077.014l-5.348-5.885a3.555 3.555 0 0 1 1.928-5.88l12.2-2.481a5.574 5.574 0 0 0 3.751-2.751l6.064-10.852a3.581 3.581 0 0 1 6.253 0l6.059 10.85a5.576 5.576 0 0 0 3.754 2.752l12.2 2.481a3.555 3.555 0 0 1 1.93 5.881z"/><path d="m24 18h2a1 1 0 0 0 0-2h-2a1 1 0 0 0 0 2z"/><path d="m34 18h2a1 1 0 0 0 0-2h-2a1 1 0 0 0 0 2z"/><path d="m21.541 22.841a5.776 5.776 0 0 1 5.918 0 1 1 0 1 0 1.082-1.682 7.751 7.751 0 0 0 -8.082 0 1 1 0 0 0 1.082 1.682z"/><path d="m32.541 22.841a5.74 5.74 0 0 1 5.921 0 1 1 0 0 0 1.079-1.684 7.75 7.75 0 0 0 -8.082 0 1 1 0 1 0 1.082 1.682z"/><path d="m45.188 24.417c-.195.269-4.875 6.583-15.188 6.583s-14.993-6.314-15.187-6.581a1 1 0 0 0 -1.626 1.162c.213.303 5.429 7.419 16.813 7.419s16.6-7.116 16.813-7.419a1 1 0 0 0 -1.625-1.164z"/></svg>