<?xml version="1.0"?>
<svg xmlns="http://www.w3.org/2000/svg" xmlns:xlink="http://www.w3.org/1999/xlink" xmlns:svgjs="http://svgjs.com/svgjs" version="1.1" width="512" height="512" x="0" y="0" viewBox="0 0 512 512" style="enable-background:new 0 0 512 512" xml:space="preserve" class=""><g transform="matrix(1,0,0,1,0,0)"><g xmlns="http://www.w3.org/2000/svg"><path d="m452 180.999v-135c0-6.042-3.627-11.492-9.199-13.829-5.571-2.338-12.004-1.102-16.315 3.131-1.178 1.156-119.136 115.698-231.486 115.698h-105c-49.626 0-90 40.374-90 90 0 44.624 32.648 81.761 75.311 88.795 3.158 71.975 29.57 138.794 30.762 141.776 2.278 5.695 7.793 9.429 13.927 9.429h75c5.4 0 10.381-2.907 13.045-7.605 2.664-4.697 2.595-10.469-.177-15.104-.269-.45-17.093-28.903-29.581-67.301h42.457c10.119.021 17.39-9.861 14.287-19.561-4.323-13.51-7.252-26.106-8.781-37.66 101.94 17.471 199.168 111.879 200.233 112.925 4.286 4.216 10.712 5.489 16.316 3.14 5.575-2.336 9.203-7.79 9.203-13.834v-135c33.084 0 60-26.916 60-60s-26.918-60-60.002-60zm-422 60c0-33.084 26.916-60 60-60h90v120h-90c-33.084 0-60-26.916-60-60zm100.465 210c-6.997-19.989-22.372-68.97-25.056-120h30.124c3.365 48.15 21.913 93.784 34.587 120zm39.674-90c-2.102-9.781-3.69-19.856-4.511-30 0 0 29.874.011 30.125.012.905 9.482 2.624 19.492 5.175 29.988zm251.861 41.637c-56.995-47.35-132.84-93.354-206.587-100.614-1.681-.652-3.502-1.023-5.413-1.023v-120.555c75.731-5.54 153.846-52.769 212-101.083zm30-131.637v-60c16.542 0 30 13.458 30 30s-13.458 30-30 30z" fill="#7cbfd0" data-original="#000000" style="" class=""/></g></g></svg>
