<?xml version="1.0"?>
<svg xmlns="http://www.w3.org/2000/svg" xmlns:xlink="http://www.w3.org/1999/xlink" xmlns:svgjs="http://svgjs.com/svgjs" version="1.1" width="512" height="512" x="0" y="0" viewBox="0 0 512 512" style="enable-background:new 0 0 512 512" xml:space="preserve" class=""><g transform="matrix(0.8800000000000001,-2.155378366499342e-16,2.155378366499342e-16,0.8800000000000001,20.399999999999977,30.71999999999997)"><path xmlns="http://www.w3.org/2000/svg" d="m304.847656 214.902344h-181.386718v-87.554688c0-26.109375 21-47.347656 46.8125-47.347656 20.445312 0 38.871093 13.832031 44.808593 33.640625 5.148438 17.171875 20.566407 28.707031 38.367188 28.707031 12.757812 0 24.449219-5.863281 32.078125-16.089844 7.621094-10.222656 9.910156-23.085937 6.277344-35.300781-7.648438-25.714843-23.660157-48.855469-45.085938-65.160156-22.179688-16.875-48.617188-25.796875-76.449219-25.796875-69.921875 0-126.808593 57.128906-126.808593 127.347656v87.554688h-8.308594c-19.382813 0-35.152344 15.773437-35.152344 35.15625v174.058594c0 48.457031 39.425781 87.882812 87.886719 87.882812h164.230469c48.460937 0 87.882812-39.425781 87.882812-87.882812v-174.0625c0-19.382813-15.769531-35.152344-35.152344-35.152344zm-231.386718-87.554688c0-53.675781 43.429687-97.347656 96.808593-97.347656 21.214844 0 41.371094 6.804688 58.285157 19.671875 16.394531 12.476563 28.648437 30.175781 34.496093 49.835937.902344 3.046876.332031 6.257813-1.570312 8.8125-1.910157 2.5625-4.835938 4.027344-8.03125 4.027344-4.445313 0-8.316407-2.941406-9.632813-7.320312-4.660156-15.558594-14.355468-29.550782-27.296875-39.402344-13.425781-10.222656-29.417969-15.625-46.246093-15.625-42.355469 0-76.808594 34.699219-76.808594 77.347656v87.554688h-20v-87.554688zm-38.304688 117.554688h269.691406c2.839844 0 5.152344 2.3125 5.152344 5.152344v139.0625h-280v-139.0625c0-2.839844 2.3125-5.152344 5.15625-5.152344zm216.960938 237.097656h-164.230469c-31.917969 0-57.886719-25.96875-57.886719-57.882812v-5h280v5c0 31.914062-25.964844 57.882812-57.882812 57.882812zm0 0" fill="#a8a8a8" data-original="#000000" style="" class=""/><path xmlns="http://www.w3.org/2000/svg" d="m170.144531 343.453125c8.285157 0 15-6.71875 15-15v-20c0-8.285156-6.714843-15-15-15-8.28125 0-15 6.714844-15 15v20c0 8.28125 6.71875 15 15 15zm0 0" fill="#a8a8a8" data-original="#000000" style="" class=""/><path xmlns="http://www.w3.org/2000/svg" d="m220.144531 343.453125c8.285157 0 15-6.71875 15-15v-20c0-8.285156-6.714843-15-15-15-8.28125 0-15 6.714844-15 15v20c0 8.28125 6.71875 15 15 15zm0 0" fill="#a8a8a8" data-original="#000000" style="" class=""/><path xmlns="http://www.w3.org/2000/svg" d="m120.398438 343.453125c8.28125 0 15-6.71875 15-15v-20c0-8.285156-6.71875-15-15-15-8.285157 0-15 6.714844-15 15v20c0 8.28125 6.714843 15 15 15zm0 0" fill="#a8a8a8" data-original="#000000" style="" class=""/><path xmlns="http://www.w3.org/2000/svg" d="m70.398438 343.453125c8.28125 0 15-6.71875 15-15v-20c0-8.285156-6.71875-15-15-15-8.285157 0-15 6.714844-15 15v20c0 8.28125 6.714843 15 15 15zm0 0" fill="#a8a8a8" data-original="#000000" style="" class=""/><path xmlns="http://www.w3.org/2000/svg" d="m270.144531 343.453125c8.285157 0 15-6.71875 15-15v-20c0-8.285156-6.714843-15-15-15-8.28125 0-15 6.714844-15 15v20c0 8.28125 6.71875 15 15 15zm0 0" fill="#a8a8a8" data-original="#000000" style="" class=""/></g></svg>
